<?xml version="1.0" encoding="UTF-8" standalone="no"?>
<!DOCTYPE svg PUBLIC "-//W3C//DTD SVG 1.1//EN" "http://www.w3.org/Graphics/SVG/1.1/DTD/svg11.dtd">
<svg width="100%" height="100%" viewBox="0 0 785 797" version="1.1" xmlns="http://www.w3.org/2000/svg" xmlns:xlink="http://www.w3.org/1999/xlink" xml:space="preserve" xmlns:serif="http://www.serif.com/" style="fill-rule:evenodd;clip-rule:evenodd;stroke-linecap:round;stroke-miterlimit:1.5;">
    <g transform="matrix(1,0,0,1,-2673.04,-374.123)">
        <g transform="matrix(0.973827,0,0,0.973827,2678.38,279.757)">
            <path d="M400.131,313.203C353.506,313.203 315.574,351.135 315.574,397.76C315.574,444.385 353.506,482.317 400.131,482.317C446.757,482.317 484.688,444.385 484.688,397.76C484.688,351.135 446.757,313.203 400.131,313.203ZM400.131,438.196C378.136,438.196 359.961,420.283 359.961,398.025C359.961,375.766 378.136,357.854 400.131,357.854C422.127,357.854 440.302,375.766 440.302,398.025C440.302,420.02 422.39,438.196 400.131,438.196Z" style="fill:rgb(43,123,228);fill-rule:nonzero;"/>
        </g>
        <g transform="matrix(0.973827,0,0,0.973827,2678.38,279.757)">
            <path d="M400.131,511.294C303.984,511.294 223.377,589.662 220.875,685.94C220.743,691.867 222.982,697.793 227.197,702.009C231.413,706.224 237.075,708.726 243.134,708.726L557.392,708.726C563.319,708.726 569.245,706.354 573.328,702.009C577.544,697.793 579.783,691.999 579.65,685.94C576.886,589.792 496.279,511.294 400.131,511.294ZM267.763,664.34C280.145,602.569 335.461,555.681 400.131,555.681C464.802,555.681 519.986,602.569 532.499,664.34L267.763,664.34Z" style="fill:rgb(43,123,228);fill-rule:nonzero;"/>
        </g>
        <g transform="matrix(1,0,0,1,-23.793,-5.11591e-13)">
            <g transform="matrix(1.02587,0,0,0.98909,1255.97,-866.038)">
                <path d="M2169.57,1360.7L2169.57,1962.32C2169.57,2015.69 2127.86,2058.95 2076.41,2058.95L1502.97,2058.95C1451.52,2058.95 1409.81,2015.69 1409.81,1962.32L1409.81,1440.65C1409.81,1424.6 1415.51,1409.11 1425.82,1397.14L1521.69,1285.86C1533.63,1272 1550.7,1264.07 1568.63,1264.07L2076.41,1264.07C2127.86,1264.07 2169.57,1307.33 2169.57,1360.7ZM2116.77,1360.7C2116.77,1337.58 2098.7,1318.84 2076.41,1318.84L1568.63,1318.84C1565.74,1318.84 1562.99,1320.12 1561.06,1322.35L1465.19,1433.63C1463.53,1435.56 1462.61,1438.06 1462.61,1440.65L1462.61,1962.32C1462.61,1985.44 1480.68,2004.19 1502.97,2004.19L2076.41,2004.19C2098.7,2004.19 2116.77,1985.44 2116.77,1962.32L2116.77,1360.7Z" style="fill:rgb(43,123,228);"/>
            </g>
            <g transform="matrix(1,0,0,1,-26.207,5.11591e-13)">
                <path d="M2771.87,552.459L2862.61,552.459C2868.87,552.459 2874.88,549.969 2879.31,545.538C2883.74,541.107 2886.24,535.097 2886.24,528.83L2886.24,422.948" style="fill:none;stroke:rgb(43,123,228);stroke-width:54.17px;"/>
            </g>
            <g transform="matrix(1,0,0,1,1288.69,-938.5)">
                <path d="M1456.97,1669.42L1638.21,1669.42" style="fill:none;stroke:rgb(43,123,228);stroke-width:54.17px;"/>
            </g>
            <g transform="matrix(1,0,0,1,1322.69,-938.5)">
                <path d="M1436.97,1751.27L1558.21,1751.27" style="fill:none;stroke:rgb(43,123,228);stroke-width:54.17px;"/>
            </g>
        </g>
    </g>
</svg>
