<?xml version="1.0" encoding="UTF-8" standalone="no"?>
<!DOCTYPE svg PUBLIC "-//W3C//DTD SVG 1.1//EN" "http://www.w3.org/Graphics/SVG/1.1/DTD/svg11.dtd">
<svg width="100%" height="100%" viewBox="0 0 369 500" version="1.1" xmlns="http://www.w3.org/2000/svg" xmlns:xlink="http://www.w3.org/1999/xlink" xml:space="preserve" xmlns:serif="http://www.serif.com/" style="fill-rule:evenodd;clip-rule:evenodd;stroke-linejoin:round;stroke-miterlimit:2;">
    <g transform="matrix(1,0,0,1,-213.519,-145.455)">
        <path d="M387.247,413.611C387.247,413.611 359.407,360.023 360.453,320.769C361.202,292.823 424.304,265.091 449.115,224.899C473.925,184.6 446.086,145.455 446.086,145.455C446.086,145.455 452.249,174.339 435.717,204.267C419.292,234.09 358.363,251.693 334.621,303.273C310.962,354.878 387.247,413.611 387.247,413.611Z" style="fill:rgb(225,30,34);fill-rule:nonzero;"/>
        <path d="M491.502,250.647C491.502,250.647 396.571,286.739 396.571,327.976C396.571,369.32 422.319,382.717 426.5,396.113C430.599,409.511 419.292,432.233 419.292,432.233C419.292,432.233 456.428,406.376 450.159,376.554C443.997,346.625 415.085,337.299 431.643,307.371C442.736,287.383 491.502,250.647 491.502,250.647Z" style="fill:rgb(225,30,34);fill-rule:nonzero;"/>
        <path d="M377.01,468.137C464.708,465.004 496.619,437.351 496.619,437.351C439.897,452.839 289.285,451.793 288.241,440.486C287.195,429.099 334.621,419.774 334.621,419.774C334.621,419.774 260.401,419.774 254.238,438.395C248.05,456.937 289.285,471.273 377.01,468.137Z" style="fill:rgb(14,111,182);fill-rule:nonzero;"/>
        <path d="M503.855,511.678C503.855,511.678 589.678,493.351 581.209,446.676C570.946,389.952 511.063,421.972 511.063,421.972C511.063,421.972 553.371,421.972 557.443,447.72C561.623,473.469 503.855,511.678 503.855,511.678Z" style="fill:rgb(14,111,182);fill-rule:nonzero;"/>
        <path d="M461.573,486.867C461.573,486.867 439.897,492.627 407.877,496.191C364.954,500.987 312.945,497.236 308.873,490.002C304.773,482.794 316.079,478.587 316.079,478.587C264.474,491.046 292.742,512.617 353.136,516.797C405.036,520.36 482.177,501.309 482.177,501.309L461.573,486.867Z" style="fill:rgb(14,111,182);fill-rule:nonzero;"/>
        <path d="M328.54,531.989C328.54,531.989 305.096,532.604 303.728,544.958C302.361,557.309 318.171,568.402 375.939,571.751C433.734,575.208 474.221,556.05 474.221,556.05L448.176,540.134C448.176,540.134 431.643,543.591 406.188,547.046C380.76,550.503 328.538,544.314 326.448,539.517C324.36,534.694 328.54,531.989 328.54,531.989Z" style="fill:rgb(14,111,182);fill-rule:nonzero;"/>
        <path d="M366.319,620.008C490.028,619.901 544.475,597.286 553.371,587.667C562.266,578.022 550.529,570.492 550.529,570.492C550.529,570.492 554.709,575.316 549.27,580.755C543.724,586.301 493.484,600.021 412.994,604.092C332.611,608.272 245.235,596.562 242.5,586.301C239.769,575.932 287.194,567.68 287.194,567.68C281.754,568.402 215.706,569.768 213.616,587.667C211.53,605.566 242.502,620.008 366.319,620.008Z" style="fill:rgb(14,111,182);fill-rule:nonzero;"/>
        <path d="M505.222,628.26C450.883,639.164 285.831,632.252 285.831,632.252C285.831,632.252 393.115,657.787 515.565,636.432C574.083,626.169 577.434,597.902 577.434,597.902C577.434,597.902 559.533,617.168 505.222,628.26Z" style="fill:rgb(14,111,182);fill-rule:nonzero;"/>
    </g>
</svg>
