<?xml version="1.0" encoding="UTF-8" standalone="no"?>
<!DOCTYPE svg PUBLIC "-//W3C//DTD SVG 1.1//EN" "http://www.w3.org/Graphics/SVG/1.1/DTD/svg11.dtd">
<svg width="100%" height="100%" viewBox="0 0 800 800" version="1.1" xmlns="http://www.w3.org/2000/svg" xmlns:xlink="http://www.w3.org/1999/xlink" xml:space="preserve" xmlns:serif="http://www.serif.com/" style="fill-rule:evenodd;clip-rule:evenodd;stroke-linejoin:round;stroke-miterlimit:2;">
    <g>
        <rect x="186.328" y="639.722" width="427.344" height="78.198" style="fill:rgb(43,123,228);"/>
        <path d="M630.616,155.053C617.627,155.053 605.03,156.542 592.895,159.325C606.788,180.102 617.431,203.245 624.048,228.027L596.973,228.027C571.314,143.555 492.847,82.08 400,82.08C307.153,82.08 228.686,143.555 203.027,228.027L175.952,228.027C182.567,203.247 193.213,180.102 207.105,159.325C194.97,156.542 182.373,155.053 169.384,155.053C75.83,155.053 0,230.884 0,324.414C0,417.969 75.83,493.823 169.384,493.823C175.097,493.823 180.738,493.53 186.328,492.969L186.328,608.472L613.672,608.472L613.672,492.969C619.262,493.53 624.903,493.823 630.616,493.823C724.17,493.823 800,417.969 800,324.414C800,230.884 724.17,155.053 630.616,155.053ZM333.545,566.772L307.495,566.772L307.495,426.048L333.545,426.048L333.545,566.772ZM492.505,566.772L466.455,566.772L466.455,426.048L492.505,426.048L492.505,566.772Z" style="fill:rgb(43,123,228);fill-rule:nonzero;"/>
    </g>
</svg>
