<?xml version="1.0" encoding="UTF-8" standalone="no"?>
<!DOCTYPE svg PUBLIC "-//W3C//DTD SVG 1.1//EN" "http://www.w3.org/Graphics/SVG/1.1/DTD/svg11.dtd">
<svg width="100%" height="100%" viewBox="0 0 44 44" version="1.1" xmlns="http://www.w3.org/2000/svg" xmlns:xlink="http://www.w3.org/1999/xlink" xml:space="preserve" xmlns:serif="http://www.serif.com/" style="fill-rule:evenodd;clip-rule:evenodd;stroke-linejoin:round;stroke-miterlimit:2;">
    <g transform="matrix(1,0,0,1,-899.168,-841.195)">
        <g transform="matrix(0.879137,0,0,0.879137,111.302,104.295)">
            <circle cx="920.897" cy="862.924" r="24.717" style="fill:white;"/>
            <path d="M920.897,838.207C934.539,838.207 945.614,849.282 945.614,862.924C945.614,876.566 934.539,887.641 920.897,887.641C907.256,887.641 896.181,876.566 896.181,862.924C896.181,849.282 907.256,838.207 920.897,838.207ZM920.897,838.444C907.387,838.444 896.418,849.413 896.418,862.924C896.418,876.435 907.387,887.404 920.897,887.404C934.408,887.404 945.377,876.435 945.377,862.924C945.377,849.413 934.408,838.444 920.897,838.444Z" style="fill:rgb(43,123,228);"/>
        </g>
        <g transform="matrix(1,0,0,1,-4.02077,-1.02089)">
            <g transform="matrix(0.379635,0,0,0.379635,909.718,851.692)">
                <path d="M0,64.049C-0.048,64.009 -0.059,63.941 -0.077,63.86C-0.126,63.643 -0.139,63.42 -0.178,63.202C-0.235,62.88 -0.292,62.559 -0.346,62.238C-0.455,61.595 -0.556,60.95 -0.636,60.303C-1.266,55.175 -0.966,49.883 1.204,45.132C2.262,42.817 3.363,40.447 5.572,39.031C6.771,38.262 8.293,38.516 9.122,39.712C9.749,40.614 10.179,41.683 10.548,42.73C11.838,46.393 11.987,50.249 12.391,54.064C12.64,56.415 12.91,58.764 13.186,61.111C13.322,62.271 13.46,63.43 13.597,64.589C13.666,65.167 13.721,65.748 13.803,66.324C13.833,66.531 13.861,66.731 13.935,66.929C14.011,67.133 14.133,67.482 14.378,67.4C14.586,67.332 14.769,66.715 14.829,66.53C15.502,64.448 15.656,62.251 16.064,60.112C16.482,57.918 16.998,55.736 17.502,53.56C18.452,49.457 19.503,45.377 20.568,41.302C20.784,40.472 21.212,39.686 21.621,38.921C22.577,37.133 24.51,37.65 25.264,39.44C25.786,40.678 25.997,42.056 26.275,43.386C26.748,45.653 27.061,47.958 27.626,50.201C28.779,54.782 30.001,59.348 31.307,63.887C31.825,65.685 32.641,67.397 33.321,69.148C33.423,69.134 33.525,69.121 33.627,69.107C33.627,68.687 33.632,68.267 33.626,67.847C33.545,62.056 33.412,56.265 33.395,50.474C33.376,43.923 33.738,37.374 34.866,30.927C35.702,26.149 36.959,21.431 38.291,16.76C39.049,14.099 40.191,11.517 41.414,9.023C43.238,5.303 45.332,1.702 48.154,-1.364C50.855,-4.298 53.849,-6.934 57.601,-8.491C62.727,-10.619 67.517,-10.005 71.9,-6.553C74.888,-4.2 76.871,-1.14 78.281,2.365C80.481,7.831 81.571,13.423 80.71,19.327C80.308,22.087 79.285,24.61 77.683,26.813C75.049,30.435 71.29,31.577 66.956,31.005C63.965,30.61 61.674,28.945 59.702,26.785C59.044,26.066 58.451,25.282 57.879,24.491C57.702,24.246 57.692,23.88 57.606,23.57C57.917,23.579 58.271,23.493 58.533,23.611C60.172,24.347 61.766,25.188 63.424,25.878C64.89,26.488 66.384,27.135 67.929,27.43C70.964,28.01 73.601,26.537 74.74,23.68C75.301,22.272 75.693,20.756 75.897,19.253C76.669,13.549 75.343,8.148 72.982,3.03C72.053,1.015 70.782,-0.884 68.988,-2.426C65.601,-5.336 61.842,-5.528 58.104,-3.474C54.76,-1.637 51.879,0.803 49.686,3.948C48.292,5.946 46.913,7.986 45.821,10.154C44.113,13.544 42.535,17.012 41.331,20.615C40.153,24.143 39.513,27.794 38.778,31.432C36.743,41.515 36.623,51.711 36.797,61.935C36.849,64.998 36.805,68.064 36.691,71.125C36.647,72.317 36.299,73.5 34.985,74.033C33.42,74.668 32.357,74.041 31.116,72.421C30.466,71.573 30.071,70.513 29.648,69.512C27.6,64.665 26.277,59.602 25.249,54.457C24.61,51.262 24.002,48.061 23.375,44.864C23.359,44.78 23.291,44.706 23.13,44.416C22.869,45.73 22.679,46.851 22.421,47.955C20.988,54.081 19.547,60.205 18.09,66.325C17.754,67.74 17.364,69.143 16.965,70.542C16.788,71.161 16.578,71.781 16.292,72.356C15.917,73.11 15.281,73.531 14.398,73.505C13.554,73.481 12.962,73.043 12.639,72.312C12.337,71.632 12.109,70.911 11.923,70.189C10.795,65.824 10.463,61.353 10.107,56.878C9.77,52.638 9.329,48.404 8.875,44.174C8.782,43.307 8.517,42.428 8.171,41.624C7.617,40.338 6.654,39.925 5.508,41.072C3.343,43.24 2.291,45.959 1.333,48.783C-0.241,53.418 -0.242,58.124 0.388,62.89C0.424,63.166 0.434,63.447 0.417,63.725C0.403,63.947 0.358,64.115 0.094,64.085C0.052,64.08 0.022,64.067 0,64.049" style="fill:rgb(43,123,228);fill-rule:nonzero;"/>
            </g>
            <g transform="matrix(0.37197,-0.0758982,-0.0758982,-0.37197,936.134,858.517)">
                <path d="M-0.334,0.029C-1.284,0.215 -1.785,1.008 -1.539,2.034C-1.386,2.669 -1.161,3.378 -0.334,3.31C0.777,3.218 1.635,2.163 1.481,1.229C1.339,0.368 0.562,-0.146 -0.334,0.029" style="fill:rgb(43,123,228);fill-rule:nonzero;"/>
            </g>
            <g transform="matrix(-0.0203057,0.379091,0.379091,0.0203057,934.158,857.127)">
                <path d="M1.099,-1.386C0.37,-1.402 -0.295,-1.321 -0.311,-0.365C-0.324,0.434 0.278,1.027 1.099,1.045C1.976,1.062 2.737,0.448 2.735,-0.276C2.734,-0.98 2.161,-1.369 1.099,-1.386" style="fill:rgb(43,123,228);fill-rule:nonzero;"/>
            </g>
        </g>
    </g>
</svg>
