<?xml version="1.0" encoding="UTF-8" standalone="no"?>
<!DOCTYPE svg PUBLIC "-//W3C//DTD SVG 1.1//EN" "http://www.w3.org/Graphics/SVG/1.1/DTD/svg11.dtd">
<svg width="100%" height="100%" viewBox="0 0 644 695" version="1.1" xmlns="http://www.w3.org/2000/svg" xmlns:xlink="http://www.w3.org/1999/xlink" xml:space="preserve" xmlns:serif="http://www.serif.com/" style="fill-rule:evenodd;clip-rule:evenodd;stroke-linejoin:round;stroke-miterlimit:2;">
    <g transform="matrix(1,0,0,1,-87.2559,-33.7081)">
        <path d="M549.927,676.489L518.726,664.258L634.888,367.334C640.234,353.638 632.983,338.184 618.994,333.643L415.82,267.285C402.783,263.037 388.721,269.775 383.887,282.593L282.666,550.366L234.692,532.275L376.782,156.396C381.543,143.726 395.386,136.987 408.35,140.942L712.305,234.839C726.514,239.233 734.058,254.761 728.638,268.677L573.071,666.382C569.409,675.537 559.082,680.078 549.927,676.489Z" style="fill:rgb(43,123,228);fill-rule:nonzero;"/>
        <path d="M87.256,514.185C87.256,569.632 132.882,615.259 188.33,615.259C243.778,615.259 289.404,569.632 289.404,514.185C289.404,458.737 243.778,413.11 188.33,413.11C132.882,413.11 87.256,458.737 87.256,514.185Z" style="fill:rgb(43,123,228);fill-rule:nonzero;"/>
        <path d="M378.906,627.271C378.906,682.718 424.533,728.345 479.98,728.345C535.428,728.345 581.055,682.718 581.055,627.271C581.055,571.823 535.428,526.196 479.98,526.196C424.533,526.196 378.906,571.823 378.906,627.271Z" style="fill:rgb(43,123,228);fill-rule:nonzero;"/>
        <path d="M192.604,296.38L111.276,92.708C105.964,79.505 113.151,64.583 126.745,60.443L211.042,34.74C222.292,31.302 234.245,36.693 239.167,47.396L249.479,69.896C255.339,82.63 248.776,97.552 235.495,101.927L177.917,120.911C172.526,122.708 169.714,128.646 171.823,133.88L226.823,274.193C228.464,278.411 226.432,283.099 222.214,284.818L192.604,296.38Z" style="fill:rgb(43,123,228);fill-rule:nonzero;"/>
        <path d="M99.01,296.38L99.01,296.38C99.01,332.724 128.917,362.63 165.26,362.63C201.604,362.63 231.51,332.724 231.51,296.38L231.51,296.38C231.51,260.037 201.604,230.13 165.26,230.13C128.917,230.13 99.01,260.037 99.01,296.38Z" style="fill:rgb(43,123,228);fill-rule:nonzero;"/>
    </g>
</svg>
