<?xml version="1.0" encoding="UTF-8" standalone="no"?>
<!DOCTYPE svg PUBLIC "-//W3C//DTD SVG 1.1//EN" "http://www.w3.org/Graphics/SVG/1.1/DTD/svg11.dtd">
<svg width="100%" height="100%" viewBox="0 0 780 780" version="1.1" xmlns="http://www.w3.org/2000/svg" xmlns:xlink="http://www.w3.org/1999/xlink" xml:space="preserve" xmlns:serif="http://www.serif.com/" style="fill-rule:evenodd;clip-rule:evenodd;stroke-linejoin:round;stroke-miterlimit:2;">
    <g transform="matrix(1,0,0,1,-997.266,-391.391)">
        <g transform="matrix(0.974266,0,0,0.974266,-7121.62,-2206.65)">
            <g id="Color-">
                <path id="Instagram" d="M8733.33,2666.67C8624.7,2666.67 8611.08,2667.13 8568.41,2669.07C8525.84,2671.02 8496.76,2677.78 8471.32,2687.67C8445.01,2697.89 8422.71,2711.57 8400.47,2733.8C8378.23,2756.04 8364.55,2778.35 8354.33,2804.65C8344.44,2830.09 8337.68,2859.17 8335.74,2901.75C8333.79,2944.41 8333.33,2958.03 8333.33,3066.67C8333.33,3175.3 8333.79,3188.92 8335.74,3231.59C8337.68,3274.16 8344.44,3303.24 8354.33,3328.68C8364.55,3354.99 8378.23,3377.29 8400.47,3399.53C8422.71,3421.77 8445.01,3435.45 8471.32,3445.67C8496.76,3455.56 8525.84,3462.32 8568.41,3464.26C8611.08,3466.21 8624.7,3466.67 8733.33,3466.67C8841.97,3466.67 8855.59,3466.21 8898.25,3464.26C8940.83,3462.32 8969.91,3455.56 8995.35,3445.67C9021.65,3435.45 9043.96,3421.77 9066.2,3399.53C9088.43,3377.29 9102.11,3354.99 9112.34,3328.68C9122.22,3303.24 9128.98,3274.16 9130.93,3231.59C9132.87,3188.92 9133.33,3175.3 9133.33,3066.67C9133.33,2958.03 9132.87,2944.41 9130.93,2901.75C9128.98,2859.17 9122.22,2830.09 9112.34,2804.65C9102.11,2778.35 9088.43,2756.04 9066.2,2733.8C9043.96,2711.57 9021.65,2697.89 8995.35,2687.67C8969.91,2677.78 8940.83,2671.02 8898.25,2669.07C8855.59,2667.13 8841.97,2666.67 8733.33,2666.67ZM8733.33,2738.74C8840.14,2738.74 8852.79,2739.15 8894.97,2741.07C8933.97,2742.85 8955.15,2749.37 8969.24,2754.84C8987.91,2762.1 9001.24,2770.77 9015.23,2784.77C9029.23,2798.76 9037.9,2812.09 9045.16,2830.76C9050.63,2844.85 9057.15,2866.03 9058.93,2905.03C9060.85,2947.21 9061.26,2959.86 9061.26,3066.67C9061.26,3173.47 9060.85,3186.12 9058.93,3228.3C9057.15,3267.3 9050.63,3288.48 9045.16,3302.58C9037.9,3321.25 9029.23,3334.57 9015.23,3348.57C9001.24,3362.57 8987.91,3371.23 8969.24,3378.49C8955.15,3383.97 8933.97,3390.48 8894.97,3392.26C8852.8,3394.19 8840.15,3394.6 8733.33,3394.6C8626.52,3394.6 8613.87,3394.19 8571.7,3392.26C8532.7,3390.48 8511.52,3383.97 8497.42,3378.49C8478.75,3371.23 8465.43,3362.57 8451.43,3348.57C8437.44,3334.57 8428.77,3321.25 8421.51,3302.58C8416.03,3288.48 8409.52,3267.3 8407.74,3228.3C8405.81,3186.12 8405.41,3173.47 8405.41,3066.67C8405.41,2959.86 8405.81,2947.21 8407.74,2905.03C8409.52,2866.03 8416.03,2844.85 8421.51,2830.76C8428.77,2812.09 8437.43,2798.76 8451.43,2784.77C8465.43,2770.77 8478.75,2762.1 8497.42,2754.84C8511.52,2749.37 8532.7,2742.85 8571.7,2741.07C8613.88,2739.15 8626.53,2738.74 8733.33,2738.74ZM8733.33,2861.26C8619.89,2861.26 8527.93,2953.22 8527.93,3066.67C8527.93,3180.11 8619.89,3272.07 8733.33,3272.07C8846.78,3272.07 8938.74,3180.11 8938.74,3066.67C8938.74,2953.22 8846.78,2861.26 8733.33,2861.26ZM8733.33,3200C8659.69,3200 8600,3140.31 8600,3066.67C8600,2993.03 8659.69,2933.33 8733.33,2933.33C8806.97,2933.33 8866.67,2993.03 8866.67,3066.67C8866.67,3140.31 8806.97,3200 8733.33,3200ZM8994.85,2853.15C8994.85,2879.66 8973.36,2901.14 8946.85,2901.14C8920.35,2901.14 8898.85,2879.66 8898.85,2853.15C8898.85,2826.64 8920.35,2805.14 8946.85,2805.14C8973.36,2805.14 8994.85,2826.64 8994.85,2853.15Z" style="fill:rgb(43,123,228);"/>
            </g>
        </g>
    </g>
</svg>
