<?xml version="1.0" encoding="UTF-8" standalone="no"?>
<!DOCTYPE svg PUBLIC "-//W3C//DTD SVG 1.1//EN" "http://www.w3.org/Graphics/SVG/1.1/DTD/svg11.dtd">
<svg width="100%" height="100%" viewBox="0 0 350 427" version="1.1" xmlns="http://www.w3.org/2000/svg" xmlns:xlink="http://www.w3.org/1999/xlink" xml:space="preserve" xmlns:serif="http://www.serif.com/" style="fill-rule:evenodd;clip-rule:evenodd;stroke-linecap:round;stroke-linejoin:round;stroke-miterlimit:1.5;">
    <g transform="matrix(1,0,0,1,-1427.44,-373.973)">
        <g transform="matrix(1.81793,0,0,1.69724,-1427.15,-1459.11)">
            <path d="M1585.88,1164.52C1585.88,1120.6 1621.54,1084.94 1665.46,1084.94C1709.38,1084.94 1745.04,1120.6 1745.04,1164.52" style="fill:none;stroke:rgb(43,123,228);stroke-width:9.48px;"/>
        </g>
        <g transform="matrix(0.583432,0,0,0.583432,341.641,-174.541)">
            <circle cx="2160.24" cy="1197.78" r="150.66" style="fill:rgb(43,123,228);"/>
        </g>
        <g transform="matrix(7.16547e-17,1.17021,-1.17021,7.16547e-17,3159.21,-1835.85)">
            <path d="M2053.67,1182.94C2053.04,1181.79 2051.82,1181.07 2050.5,1181.07C2042.12,1181.07 2011.57,1181.07 2003.19,1181.07C2001.87,1181.07 2000.66,1181.79 2000.02,1182.94C1995.9,1190.44 1980.52,1218.4 1974,1230.25C1973.38,1231.37 1973.4,1232.74 1974.06,1233.84C1974.71,1234.94 1975.89,1235.61 1977.17,1235.61C1996.64,1235.61 2057.05,1235.61 2076.52,1235.61C2077.8,1235.61 2078.99,1234.94 2079.64,1233.84C2080.29,1232.74 2080.31,1231.37 2079.69,1230.25C2073.18,1218.4 2057.79,1190.44 2053.67,1182.94Z" style="fill:rgb(43,123,228);"/>
        </g>
        <g transform="matrix(-7.16547e-17,1.17021,1.17021,7.16547e-17,45.3396,-1835.85)">
            <path d="M2053.67,1182.94C2053.04,1181.79 2051.82,1181.07 2050.5,1181.07C2042.12,1181.07 2011.57,1181.07 2003.19,1181.07C2001.87,1181.07 2000.66,1181.79 2000.02,1182.94C1995.9,1190.44 1980.52,1218.4 1974,1230.25C1973.38,1231.37 1973.4,1232.74 1974.06,1233.84C1974.71,1234.94 1975.89,1235.61 1977.17,1235.61C1996.64,1235.61 2057.05,1235.61 2076.52,1235.61C2077.8,1235.61 2078.99,1234.94 2079.64,1233.84C2080.29,1232.74 2080.31,1231.37 2079.69,1230.25C2073.18,1218.4 2057.79,1190.44 2053.67,1182.94Z" style="fill:rgb(43,123,228);"/>
        </g>
        <g transform="matrix(1,0,0,1,-780.931,-812.455)">
            <path d="M2219.27,1545.59C2221.64,1537.88 2224.54,1530.39 2227.93,1523.18C2245.62,1485.62 2276.69,1455.59 2314.98,1439.24C2331.19,1457.7 2354.97,1469.33 2381.45,1469.33C2407.94,1469.33 2431.73,1457.69 2447.99,1439.26C2486.26,1455.61 2517.31,1485.64 2534.99,1523.19C2538.39,1530.4 2541.29,1537.88 2543.65,1545.59C2502.09,1587.05 2444.74,1612.69 2381.46,1612.69C2318.18,1612.69 2260.84,1587.05 2219.27,1545.59Z" style="fill:rgb(43,123,228);stroke:white;stroke-width:1.46px;"/>
        </g>
    </g>
</svg>
