<?xml version="1.0" encoding="UTF-8" standalone="no"?>
<!DOCTYPE svg PUBLIC "-//W3C//DTD SVG 1.1//EN" "http://www.w3.org/Graphics/SVG/1.1/DTD/svg11.dtd">
<svg width="100%" height="100%" viewBox="0 0 798 778" version="1.1" xmlns="http://www.w3.org/2000/svg" xmlns:xlink="http://www.w3.org/1999/xlink" xml:space="preserve" xmlns:serif="http://www.serif.com/" style="fill-rule:evenodd;clip-rule:evenodd;stroke-linejoin:round;stroke-miterlimit:2;">
    <g transform="matrix(1,0,0,1,-120.306,-393.346)">
        <g transform="matrix(1.13999,0,0,1.13999,63.3067,336.347)">
            <path d="M400,50C206.65,50 50,206.5 50,399.65C50,554.15 150.3,685.15 289.35,731.4C306.85,734.6 313.25,723.8 313.25,714.55C313.25,706.25 312.95,684.25 312.75,655.05C215.4,676.2 194.9,608.2 194.9,608.2C178.95,567.8 156,557.05 156,557.05C124.25,535.35 158.4,535.8 158.4,535.8C193.55,538.3 212.05,571.8 212.05,571.8C243.25,625.3 293.95,609.8 313.9,600.9C317.05,578.3 326.1,562.9 336.1,554.15C258.4,545.35 176.7,515.35 176.7,381.35C176.7,343.2 190.35,311.95 212.7,287.55C209.1,278.7 197.1,243.15 216.2,195.05C216.2,195.05 245.5,185.6 312.4,230.85C340.952,223.071 370.408,219.103 400,219.05C429.75,219.2 459.7,223.05 487.65,230.85C554.45,185.6 583.8,195 583.8,195C602.9,243.15 590.9,278.7 587.3,287.5C609.7,312 623.3,343.2 623.3,381.35C623.3,515.65 541.4,545.25 463.45,553.85C476,564.65 487.2,586 487.2,618.65C487.2,665.35 486.75,703.05 486.75,714.55C486.75,723.9 493.1,734.75 510.85,731.35C653.256,683.865 749.941,549.765 750,399.65C749.89,207.747 591.903,49.918 400,50Z" style="fill:rgb(43,123,228);"/>
        </g>
    </g>
</svg>
