<?xml version="1.0" encoding="UTF-8" standalone="no"?>
<!DOCTYPE svg PUBLIC "-//W3C//DTD SVG 1.1//EN" "http://www.w3.org/Graphics/SVG/1.1/DTD/svg11.dtd">
<svg width="100%" height="100%" viewBox="0 0 5001 6290" version="1.1" xmlns="http://www.w3.org/2000/svg" xmlns:xlink="http://www.w3.org/1999/xlink" xml:space="preserve" xmlns:serif="http://www.serif.com/" style="fill-rule:evenodd;clip-rule:evenodd;stroke-linejoin:round;stroke-miterlimit:2;">
    <g transform="matrix(1,0,0,1,-6934.42,-2.33358)">
        <g transform="matrix(4.16667,0,0,4.16667,0,0)">
            <path d="M1664.26,150.566L1730.67,1069.36C1730.67,1069.36 1796.15,1509 2258.82,1509.99C2259.08,1510 2259.34,1510 2259.6,1510C2259.87,1510 2260.12,1510 2260.38,1509.99C2723.05,1509 2788.53,1069.36 2788.53,1069.36L2864.31,159.942L2260.38,0.56L1664.26,150.566Z" style="fill:rgb(239,70,35);fill-rule:nonzero;"/>
        </g>
        <g transform="matrix(4.16667,0,0,4.16667,0,0)">
            <path d="M2264.29,1.092L2264.29,1509.46C2723.42,1506.03 2788.53,1068.86 2788.53,1068.86L2864.31,159.448L2264.29,1.092Z" style="fill:rgb(240,94,34);fill-rule:nonzero;"/>
        </g>
        <g transform="matrix(4.16667,0,0,4.16667,0,0)">
            <path d="M2625.77,656.016L2598.56,1031.18L2315.71,1118.15L2315.05,1116.01L2314.64,1117.7L2002.69,1047.76L1992.21,863.191L2103.14,863.129L2108.79,959.126L2314.03,1002.41L2314.04,1002.41L2491.33,947.896L2500.05,767.133L2006.93,767.133L2006.93,766.437L1990.99,767.133C1990.98,767.031 1990.97,766.875 1990.96,766.671C1989.98,749.74 1964.28,392.408 1964.28,392.408L2635.91,392.408L2621.09,503.524L2090.72,503.524L2097.36,656.016L2625.77,656.016Z" style="fill:white;"/>
        </g>
    </g>
</svg>
